<svg xmlns="http://www.w3.org/2000/svg" viewBox="0 0 70 70">
  <defs>
    <style>
      .cls-1 {
        fill: #7dded8;
      }

      .cls-2 {
        fill: #91ffff;
      }

      .cls-3 {
        fill: #fff;
      }

      .cls-4 {
        fill: #bbbdbf;
      }

      .cls-5 {
        fill: #fbb03b;
      }

      .cls-6 {
        fill: #fcee21;
      }

      .cls-7 {
        fill: red;
      }

      .cls-8 {
        fill: #f15a24;
      }

      .cls-9 {
        fill: #2daaaa;
      }

      .cls-10 {
        fill: #ff6e00;
      }

      .cls-11 {
        fill: #a50000;
      }

      .cls-12 {
        fill: #211a20;
      }
    </style>
  </defs>
  <title>Asset 1</title>
  <g id="Layer_2" data-name="Layer 2">
    <g id="Слой_1" data-name="Слой 1">
      <g>
        <path class="cls-1" d="M68.25,16.6V28.42a5.25,5.25,0,0,0-9-3.71l-3.71,3.71L50.15,23a14,14,0,0,0-19.8,0l-5.43,5.42-3.71-3.71a5.25,5.25,0,0,0-9,3.71V1.75h45.5a10.5,10.5,0,0,1,10.5,10.5Z"/>
        <path class="cls-2" d="M44.62,14.88h-7a1.75,1.75,0,1,1,0-3.5h7a1.75,1.75,0,1,1,0,3.5Z"/>
        <circle class="cls-2" cx="56.87" cy="11.38" r="1.75"/>
        <circle class="cls-2" cx="53.37" cy="14.88" r="1.75"/>
        <circle class="cls-2" cx="56.87" cy="18.38" r="1.75"/>
        <circle class="cls-2" cx="60.37" cy="14.88" r="1.75"/>
        <path class="cls-3" d="M55.58,28.42l-5.33,5.33-.1.1a14.3,14.3,0,0,1-4,2.79,14,14,0,0,1-15.83-2.79l-.1-.1-5.33-5.33L30.35,23a14,14,0,0,1,19.8,0Z"/>
        <path class="cls-4" d="M30.35,28.6a14,14,0,0,1,19.8,0l2.62,2.63,2.81-2.81L50.15,23a14,14,0,0,0-19.8,0l-5.43,5.42,2.81,2.81Z"/>
        <path class="cls-2" d="M21.87,16.62h7a1.74,1.74,0,0,0,1.75-1.74h0a1.75,1.75,0,0,0-1.75-1.76h-7a1.76,1.76,0,0,0-1.75,1.76h0A1.75,1.75,0,0,0,21.87,16.62Z"/>
        <path class="cls-2" d="M23.62,11.38v7a1.75,1.75,0,0,0,1.75,1.74h0a1.74,1.74,0,0,0,1.75-1.74v-7a1.75,1.75,0,0,0-1.75-1.76h0A1.76,1.76,0,0,0,23.62,11.38Z"/>
        <path class="cls-1" d="M68.25,50.75v7a10.5,10.5,0,0,1-10.5,10.5H12.25a10.5,10.5,0,0,1-9.9-7h20.4v3.5l7-7,7,7v-3.5h21A10.5,10.5,0,0,0,68.25,50.75Z"/>
        <path class="cls-5" d="M68.75,42.36v3.5A10.52,10.52,0,0,1,68.27,49L50.75,35.86l5.32-5.33,3.71,3.72a5.26,5.26,0,0,0,9-3.72Z"/>
        <path class="cls-6" d="M50.25,33.75,67.77,46.89l-.12.36H52.25L46.18,36.64a14.3,14.3,0,0,0,4-2.79Z"/>
        <polygon class="cls-1" points="52.25 47.25 67.65 47.25 67.65 54.25 36.75 54.25 36.75 47.25 40.25 47.25 52.25 47.25"/>
        <path class="cls-1" d="M59.29,24.71a5.25,5.25,0,1,1,0,7.43l-3.71-3.72Z"/>
        <path class="cls-5" d="M46.18,36.64l6.07,10.61h-12V38A14.07,14.07,0,0,0,46.18,36.64Z"/>
        <path class="cls-6" d="M40.25,38v9.3h-12l6.07-10.61A14.07,14.07,0,0,0,40.25,38Z"/>
        <polygon class="cls-7" points="36.75 61.25 36.75 64.75 29.75 57.75 22.75 64.75 22.75 61.25 22.75 54.25 22.75 47.25 28.25 47.25 36.75 47.25 36.75 54.25 36.75 61.25"/>
        <path class="cls-8" d="M34.32,36.64,28.25,47.25h-16l18-13.5.1.1A14.15,14.15,0,0,0,34.32,36.64Z"/>
        <path class="cls-6" d="M30.25,33.75l-18,13.5V28.42a5.25,5.25,0,0,0,9,3.72l3.71-3.72Z"/>
        <path class="cls-1" d="M24.92,28.42l-3.71,3.72a5.25,5.25,0,1,1,0-7.43Z"/>
        <path class="cls-9" d="M22.75,54.25v7H2.35a10.51,10.51,0,0,1,0-7Z"/>
        <path class="cls-9" d="M67.65,54.25v7H38.49a7.48,7.48,0,0,1,0-7Z"/>
        <path class="cls-1" d="M22.75,47.25v7H2.35a10.5,10.5,0,0,1,9.9-7Z"/>
        <path class="cls-7" d="M12.25,40.25v7a10.5,10.5,0,0,0-9.9,7h-.6v-7a10.5,10.5,0,0,1,10.5-10.5Z"/>
        <path class="cls-7" d="M12.25,28.42v8.33a10.5,10.5,0,0,0-10.5,10.5V22.75a10.5,10.5,0,0,1,10.5-10.5V28.42Z"/>
        <path class="cls-7" d="M12.25,1.75v10.5a10.5,10.5,0,0,0-10.5,10.5V12.25A10.5,10.5,0,0,1,12.25,1.75Z"/>
        <path class="cls-10" d="M1.75,12.25V17.5A10.5,10.5,0,0,1,12.25,7V1.75A10.5,10.5,0,0,0,1.75,12.25Z"/>
        <rect class="cls-11" x="22.75" y="45.5" width="14" height="7"/>
        <path class="cls-9" d="M59.29,29.53a5.25,5.25,0,0,1,8.39,1.3,5.26,5.26,0,0,0-8.39-6.12l-3.71,3.71L58,30.83Z"/>
        <path class="cls-9" d="M21.21,29.53l1.31,1.3,2.4-2.41-3.71-3.71a5.26,5.26,0,0,0-8.39,6.12A5.25,5.25,0,0,1,21.21,29.53Z"/>
        <g>
          <path class="cls-12" d="M36.75,14h7a1.75,1.75,0,0,0,0-3.5h-7a1.75,1.75,0,0,0,0,3.5Z"/>
          <circle class="cls-12" cx="56" cy="10.5" r="1.75"/>
          <circle class="cls-12" cx="52.5" cy="14" r="1.75"/>
          <circle class="cls-12" cx="56" cy="17.5" r="1.75"/>
          <circle class="cls-12" cx="59.5" cy="14" r="1.75"/>
          <path class="cls-12" d="M21,15.75h1.75V17.5a1.75,1.75,0,0,0,3.5,0V15.75H28a1.75,1.75,0,0,0,0-3.5H26.25V10.5a1.75,1.75,0,0,0-3.5,0v1.75H21a1.75,1.75,0,0,0,0,3.5Z"/>
          <path class="cls-12" d="M57.75,0H12.25A12.27,12.27,0,0,0,0,12.25v45.5a12.15,12.15,0,0,0,.7,4.08.59.59,0,0,0,0,.08v0A12.25,12.25,0,0,0,12.25,70h45.5A12.27,12.27,0,0,0,70,57.75V12.25A12.27,12.27,0,0,0,57.75,0ZM66.5,12.25V22.36a8.92,8.92,0,0,0-.82-.4,6.88,6.88,0,0,0-7.63,1.52L55.57,26l-4.18-4.19a15.76,15.76,0,0,0-22.28,0L24.93,26l-2.48-2.47A6.88,6.88,0,0,0,14.82,22a8.92,8.92,0,0,0-.82.4V3.5H57.75A8.77,8.77,0,0,1,66.5,12.25Zm-63,35a8.75,8.75,0,0,1,7-8.57v7a12.26,12.26,0,0,0-7,3.56Zm36.75-14a7,7,0,0,0,7-7A6.92,6.92,0,0,0,45.77,22a12,12,0,0,1,3.14,2.28l4.19,4.19-4.19,4.18a12.38,12.38,0,0,1-3.47,2.44,12.29,12.29,0,0,1-10.38,0,12.38,12.38,0,0,1-3.47-2.44L27.4,28.43l4.19-4.19A12,12,0,0,1,34.73,22a6.92,6.92,0,0,0-1.48,4.29A7,7,0,0,0,40.25,33.25ZM66.5,52.5h-28V49h28Zm-43.75-7H17.5L30.13,36a15.78,15.78,0,0,0,1.78,1.29L27.23,45.5ZM12.25,49H21v3.5H5.26A8.74,8.74,0,0,1,12.25,49ZM35.08,38.83a16,16,0,0,0,3.42.77v5.9H31.27Zm10.34,0,3.81,6.67H42V39.6A16,16,0,0,0,45.42,38.83Zm7.85,6.67-4.68-8.19A14.62,14.62,0,0,0,50.37,36L63,45.5ZM27.58,33.56,14,43.75V34.49a7.77,7.77,0,0,0,.82.4,6.88,6.88,0,0,0,7.63-1.51l2.48-2.48ZM20,30.9A3.5,3.5,0,1,1,20,26l2.47,2.48ZM3.68,59.5a8.6,8.6,0,0,1,0-3.5H21v3.5ZM24.5,49H35V60.52l-4-4a1.76,1.76,0,0,0-2.48,0l-4,4Zm14,7h28v1.75a8.45,8.45,0,0,1-.18,1.75H38.5Zm28-15.75v3.5L52.92,33.56l2.65-2.66,2.48,2.48A6.9,6.9,0,0,0,63,35.44a7.15,7.15,0,0,0,2.73-.55,7.77,7.77,0,0,0,.82-.4Zm-2.16-8.59a3.4,3.4,0,0,1-3.82-.76l-2.47-2.47L60.52,26a3.5,3.5,0,1,1,3.82,5.71ZM3.5,12.25a8.75,8.75,0,0,1,7-8.57v7a12.23,12.23,0,0,0-7,3.56Zm0,10.5a8.75,8.75,0,0,1,7-8.57v21a12.23,12.23,0,0,0-7,3.56ZM57.75,66.5H12.25a8.74,8.74,0,0,1-7-3.5H21v1.75A1.75,1.75,0,0,0,24,66l5.76-5.76L35.51,66a1.77,1.77,0,0,0,1.24.51,1.74,1.74,0,0,0,.67-.13,1.76,1.76,0,0,0,1.08-1.62V63H64.73A8.72,8.72,0,0,1,57.75,66.5Z"/>
        </g>
      </g>
    </g>
  </g>
</svg>
